<svg xmlns="http://www.w3.org/2000/svg" viewBox="0 0 76.58 66.32"><defs><style>.cls-1{fill:#ffe4da;}.cls-1,.cls-2{stroke:#860d23;stroke-miterlimit:10;stroke-width:4px;}.cls-2{fill:none;}</style></defs><g id="Layer_2" data-name="Layer 2"><g id="Layer_1-2" data-name="Layer 1"><polygon class="cls-1" points="29.3 17.58 11.3 17.58 2.31 33.16 11.3 48.74 29.3 48.74 38.29 33.16 29.3 17.58"/><polygon class="cls-1" points="56.33 2 38.34 2 29.34 17.58 38.34 33.16 56.33 33.16 65.32 17.58 56.33 2"/><polygon class="cls-1" points="56.33 33.16 38.34 33.16 29.34 48.74 38.34 64.32 56.33 64.32 65.32 48.74 56.33 33.16"/><polygon class="cls-2" points="65.28 17.58 47.29 17.58 38.29 33.16 47.29 48.74 65.28 48.74 74.27 33.16 65.28 17.58"/><polygon class="cls-2" points="38.34 2 20.35 2 11.35 17.58 20.35 33.16 38.34 33.16 47.33 17.58 38.34 2"/><polygon class="cls-2" points="38.34 33.16 20.35 33.16 11.35 48.74 20.35 64.32 38.34 64.32 47.33 48.74 38.34 33.16"/></g></g></svg>