<svg xmlns="http://www.w3.org/2000/svg" xmlns:xlink="http://www.w3.org/1999/xlink" viewBox="0 0 192 192"><defs><style>.cls-1,.cls-3{fill:none;}.cls-2{fill:#fff;}.cls-2,.cls-3{stroke:#000;stroke-miterlimit:10;stroke-width:4px;}.cls-4{fill:url(#kuutio);}</style><pattern id="kuutio" data-name="kuutio" width="107.91" height="62.35" patternTransform="translate(-47.24 -0.85) scale(0.79 0.67)" patternUnits="userSpaceOnUse" viewBox="0 0 107.91 62.35"><rect class="cls-1" width="107.91" height="62.35"/><polygon class="cls-2" points="102.64 50.23 84.65 50.23 75.65 65.81 84.65 81.39 102.64 81.39 111.64 65.81 102.64 50.23"/><polygon class="cls-3" points="129.67 34.65 111.68 34.65 102.69 50.23 111.68 65.81 129.67 65.81 138.67 50.23 129.67 34.65"/><polygon class="cls-2" points="111.68 34.65 93.69 34.65 84.7 50.23 93.69 65.81 111.68 65.81 120.68 50.23 111.68 34.65"/><polygon class="cls-2" points="-5.27 50.23 -23.26 50.23 -32.25 65.81 -23.26 81.39 -5.27 81.39 3.73 65.81 -5.27 50.23"/><polygon class="cls-3" points="21.77 34.65 3.77 34.65 -5.22 50.23 3.77 65.81 21.77 65.81 30.76 50.23 21.77 34.65"/><polygon class="cls-2" points="30.71 50.23 12.72 50.23 3.73 65.81 12.72 81.39 30.71 81.39 39.71 65.81 30.71 50.23"/><polygon class="cls-2" points="3.77 34.65 -14.22 34.65 -23.21 50.23 -14.22 65.81 3.77 65.81 12.77 50.23 3.77 34.65"/><polygon class="cls-2" points="102.64 -12.12 84.65 -12.12 75.65 3.46 84.65 19.04 102.64 19.04 111.64 3.46 102.64 -12.12"/><polygon class="cls-3" points="129.67 -27.7 111.68 -27.7 102.69 -12.12 111.68 3.46 129.67 3.46 138.67 -12.12 129.67 -27.7"/><polygon class="cls-3" points="129.67 3.46 111.68 3.46 102.69 19.04 111.68 34.62 129.67 34.62 138.67 19.04 129.67 3.46"/><polygon class="cls-2" points="111.68 -27.7 93.69 -27.7 84.7 -12.12 93.69 3.46 111.68 3.46 120.68 -12.12 111.68 -27.7"/><polygon class="cls-2" points="111.68 3.46 93.69 3.46 84.7 19.04 93.69 34.62 111.68 34.62 120.68 19.04 111.68 3.46"/><polygon class="cls-2" points="48.69 19.05 30.7 19.05 21.7 34.63 30.7 50.21 48.69 50.21 57.68 34.63 48.69 19.05"/><polygon class="cls-3" points="75.72 3.47 57.73 3.47 48.73 19.05 57.73 34.63 75.72 34.63 84.71 19.05 75.72 3.47"/><polygon class="cls-3" points="75.72 34.63 57.73 34.63 48.73 50.21 57.73 65.79 75.72 65.79 84.71 50.21 75.72 34.63"/><polygon class="cls-2" points="84.67 19.05 66.68 19.05 57.68 34.63 66.68 50.21 84.67 50.21 93.66 34.63 84.67 19.05"/><polygon class="cls-2" points="57.73 3.47 39.74 3.47 30.74 19.05 39.74 34.63 57.73 34.63 66.72 19.05 57.73 3.47"/><polygon class="cls-2" points="57.73 34.63 39.74 34.63 30.74 50.21 39.74 65.79 57.73 65.79 66.72 50.21 57.73 34.63"/><polygon class="cls-2" points="-5.27 -12.12 -23.26 -12.12 -32.25 3.46 -23.26 19.04 -5.27 19.04 3.73 3.46 -5.27 -12.12"/><polygon class="cls-3" points="21.77 -27.7 3.77 -27.7 -5.22 -12.12 3.77 3.46 21.77 3.46 30.76 -12.12 21.77 -27.7"/><polygon class="cls-3" points="21.77 3.46 3.77 3.46 -5.22 19.04 3.77 34.62 21.77 34.62 30.76 19.04 21.77 3.46"/><polygon class="cls-2" points="30.71 -12.12 12.72 -12.12 3.73 3.46 12.72 19.04 30.71 19.04 39.71 3.46 30.71 -12.12"/><polygon class="cls-2" points="3.77 -27.7 -14.22 -27.7 -23.21 -12.12 -14.22 3.46 3.77 3.46 12.77 -12.12 3.77 -27.7"/><polygon class="cls-2" points="3.77 3.46 -14.22 3.46 -23.21 19.04 -14.22 34.62 3.77 34.62 12.77 19.04 3.77 3.46"/><polygon class="cls-3" points="75.72 -27.72 57.73 -27.72 48.73 -12.14 57.73 3.44 75.72 3.44 84.71 -12.14 75.72 -27.72"/><polygon class="cls-2" points="57.73 -27.72 39.74 -27.72 30.74 -12.14 39.74 3.44 57.73 3.44 66.72 -12.14 57.73 -27.72"/></pattern></defs><g id="Layer_2" data-name="Layer 2"><g id="Layer_1-2" data-name="Layer 1"><rect class="cls-4" width="192" height="192"/></g></g></svg>